<svg width="16" height="18" viewBox="0 0 16 18" fill="" xmlns="http://www.w3.org/2000/svg">
<g clip-path="url(#clip0_43_396)">
<path d="M7.39491 17.9268C6.6436 17.7077 6.04944 17.0906 5.85577 16.3282C5.81945 16.1852 5.78974 15.9995 5.78974 15.9156V15.763H3.65131C1.37034 15.763 1.26252 15.7547 0.862915 15.5478C0.768698 15.499 0.602133 15.3683 0.492741 15.2573C-0.343313 14.4087 -0.0812153 12.9241 1.01984 12.2715C1.37009 12.0638 1.56223 11.8736 1.67786 11.6198C1.76259 11.4339 1.76744 11.3443 1.79158 9.5214C1.81619 7.66299 1.81938 7.60648 1.9241 7.17285C2.24527 5.84286 2.80098 4.85603 3.73899 3.95006C4.47391 3.24023 5.56514 2.6233 6.42556 2.43118C6.5574 2.40174 6.66527 2.37473 6.66527 2.37116C6.66527 2.3676 6.62328 2.28018 6.57194 2.17689C6.49397 2.02004 6.47854 1.9194 6.47815 1.56594C6.47815 1.19557 6.49153 1.11283 6.58858 0.902634C6.74388 0.566403 7.00007 0.30081 7.32639 0.137767C7.57861 0.0117376 7.63488 0.000244141 7.99947 0.000244141C8.36404 0.000244141 8.42029 0.0117408 8.67253 0.137767C8.99884 0.30081 9.25504 0.566403 9.41034 0.902634C9.50742 1.11283 9.5212 1.19557 9.52079 1.56594C9.52079 1.9194 9.50493 2.02004 9.42698 2.17689C9.37564 2.28018 9.33364 2.3676 9.33364 2.37116C9.33364 2.37473 9.44151 2.40174 9.57336 2.43118C10.4427 2.62529 11.533 3.24262 12.2679 3.95677C13.1976 4.86036 13.7616 5.86371 14.0756 7.17285C14.1792 7.60506 14.1828 7.66904 14.208 9.5214C14.2307 11.1945 14.2426 11.4453 14.3056 11.5881C14.419 11.8449 14.5711 11.9995 14.9785 12.272C15.5773 12.6723 15.8604 13.0959 15.9757 13.7636C16.1285 14.6482 15.543 15.5293 14.6787 15.7155C14.5316 15.7471 13.7475 15.763 12.3335 15.763H10.2092V15.9156C10.2092 15.9995 10.1795 16.1852 10.1431 16.3282C9.94664 17.1017 9.3201 17.7402 8.5606 17.941C8.24184 18.0253 7.7103 18.0188 7.39491 17.9268ZM8.56233 16.9868C8.95757 16.7965 9.26151 16.3809 9.31949 15.9517L9.34497 15.763H8.00512H6.66527V15.8621C6.66527 16.0363 6.77499 16.3387 6.91093 16.5392C7.26643 17.0637 7.99361 17.2608 8.56233 16.9868ZM14.5603 14.8225C14.7898 14.7527 15.0174 14.514 15.0837 14.2736C15.1962 13.866 14.9642 13.3223 14.5728 13.076C13.9334 12.6736 13.667 12.3784 13.4551 11.8376C13.3625 11.6015 13.3592 11.5429 13.3344 9.69066C13.3067 7.62489 13.3003 7.56078 13.0446 6.78618C12.515 5.18184 11.2046 3.88915 9.58381 3.37225C8.04082 2.88017 6.36819 3.13229 5.00015 4.06316C4.11734 4.66384 3.33816 5.68185 2.97623 6.70737C2.70799 7.46746 2.69698 7.57264 2.66617 9.66951C2.63875 11.5363 2.63499 11.6023 2.54331 11.8376C2.33381 12.3753 2.11977 12.6164 1.45451 13.0636C1.14019 13.2749 0.976804 13.5132 0.908273 13.8604C0.873952 14.0343 0.874363 14.1414 0.90985 14.2753C0.967225 14.4915 1.2096 14.7531 1.4139 14.8192C1.63248 14.8899 14.328 14.8931 14.5603 14.8225ZM8.26333 2.16413C8.69171 1.98246 8.79613 1.41246 8.46297 1.07433C8.19254 0.799846 7.80638 0.799846 7.53592 1.07433C7.02034 1.59764 7.58925 2.44999 8.26333 2.16413Z" fill="white"/>
</g>
<defs>
<clipPath id="clip0_43_396">
<rect width="16" height="18" fill="white"/>
</clipPath>
</defs>
</svg>
